<?xml version="1.0" encoding="UTF-8"?>
<svg xmlns="http://www.w3.org/2000/svg" xmlns:xlink="http://www.w3.org/1999/xlink" width="100px" height="115px" viewBox="0 0 100 115" version="1.1">
<g id="surface1">
<path style=" stroke:none;fill-rule:nonzero;fill:rgb(4.705882%,45.098039%,72.156863%);fill-opacity:1;" d="M 9.070312 101.730469 L 0 0 L 99.777344 0 L 90.707031 101.730469 L 49.777344 113.230469 "/>
<path style=" stroke:none;fill-rule:nonzero;fill:rgb(18.823529%,66.27451%,86.27451%);fill-opacity:1;" d="M 50 104.382812 L 82.964844 95.316406 L 90.707031 8.183594 L 50 8.183594 "/>
<path style=" stroke:none;fill-rule:nonzero;fill:rgb(92.54902%,92.941176%,93.333333%);fill-opacity:1;" d="M 50 46 L 20.796875 46 L 21.902344 58.605469 L 50 58.605469 Z M 50 20.789062 L 18.585938 20.789062 L 19.691406 33.171875 L 50 33.171875 Z M 50 78.507812 L 22.566406 71.210938 L 24.113281 84.480469 L 50 91.558594 Z M 50 78.507812 "/>
<path style=" stroke:none;fill-rule:nonzero;fill:rgb(100%,100%,100%);fill-opacity:1;" d="M 50 58.605469 L 65.265625 58.605469 L 63.71875 74.75 L 50 78.507812 L 50 91.558594 L 75.441406 84.480469 L 81.195312 20.789062 L 50 20.789062 L 50 33.171875 L 67.699219 33.171875 L 66.371094 46 L 50 46 Z M 50 58.605469 "/>
</g>
</svg>
